<?xml version='1.0' encoding='utf-8'?>
<svg xmlns="http://www.w3.org/2000/svg" width="86.965668mm" height="63.652893mm" viewBox="0 0 86.965668 63.652893" version="1.1" id="svg6112"> <defs id="defs6109"/> <g id="layer1" transform="translate(-55.960027,-102.73296)"> <g id="g15144"> <g transform="matrix(0.82624632,0,0,0.82624632,-306.88316,8.08649)" id="g6714"> <path style="fill:#bfbfbf;fill-opacity:1;stroke:none;stroke-width:0.762506px;stroke-linecap:butt;stroke-linejoin:miter;stroke-opacity:1" d="m 449.25456,127.46596 c -0.62639,5.206 2.45717,7.28314 2.86436,14.22068 9.46174,8.11892 26.51517,17.61493 41.83005,24.94764 9.10148,3.36821 20.76688,8.5166 26.56174,11.05231 2.06786,0.90486 7.39407,-7.9861 7.39407,-7.9861 0,0 -1.5437,1.87866 -3.33415,0.97066 -16.53194,-8.38403 -18.67037,-8.27665 -28.05653,-12.35392 -22.11662,-12.70142 -26.12182,-12.60321 -36.0394,-20.10393 -4.13067,-3.12402 -9.61651,-5.67535 -11.22014,-10.74734 z" id="path6288"/> <path style="fill:#707070;fill-opacity:1;stroke:none;stroke-width:0.762506px;stroke-linecap:butt;stroke-linejoin:miter;stroke-opacity:1" d="m 525.42725,171.10246 c 0.6229,0.31868 3.01454,-1.35563 2.42908,-1.73878 -17.32156,-11.336 -17.48116,-14.0786 -26.88509,-20.16689 -11.67489,-7.55857 -26.95902,-15.75628 -36.50498,-20.20641 -2.16693,-1.0102 -9.42563,-5.29191 -14.07643,-2.9922 -3.53078,1.74586 2.59648,6.90964 5.36346,9.07588 7.97699,6.24514 23.34277,14.50562 35.55184,20.77827 11.08136,5.69325 15.77129,5.8621 34.12212,15.25013 z" id="path6290"/> <path style="fill:#515151;fill-opacity:1;stroke:none;stroke-width:0.738473px;stroke-linecap:butt;stroke-linejoin:miter;stroke-opacity:1" d="m 525.009,170.55022 c 0.60327,0.30866 2.48144,-1.00962 1.91443,-1.38069 -16.77561,-10.9787 -17.18487,-13.71727 -26.40843,-19.66605 -11.31963,-7.30063 -26.10931,-15.25967 -35.35437,-19.56954 -2.09866,-0.97835 -9.63403,-5.8665 -14.13825,-3.63927 -3.41948,1.69084 3.49192,6.96146 6.1717,9.05943 7.72554,6.0483 22.61859,14.02595 34.43129,20.12338 10.84945,5.60022 15.61117,5.98063 33.38363,15.07274 z" id="path6292"/> <path id="path5027-8" d="m 449.91149,156.82356 c 7.43643,8.97834 35.91704,24.44522 42.55151,25.24224 24.38243,2.92915 38.80862,16.87694 50.02705,4.45013 4.71901,-5.22732 -0.34335,-14.72933 -4.00746,-20.74333 -8.24151,-13.52701 -23.32034,-22.01171 -37.32853,-29.40585 -17.82904,-9.41097 -42.38238,-22.73268 -57.70579,-18.1111 -9.29273,5.302 -1.84657,28.53513 6.46322,38.56791 z m -0.0383,-30.48287 c 2.27435,-1.75367 6.51215,-0.75255 8.00073,-0.24667 1.65573,0.56267 3.61792,1.57642 7.82188,3.412 6.16138,2.69025 12.98583,5.92829 21.9656,11.59915 7.29259,4.60538 10.21495,4.84139 26.50464,18.65186 1.77346,1.50356 7.20845,5.16249 13.83507,9.84223 -1.95761,3.04343 -2.3326,3.60714 -4.13675,5.77993 -1.34999,1.47523 -71.3201,-28.50389 -72.80942,-39.77994 -2.70925,-5.78736 -1.80301,-8.90389 -1.18175,-9.25856 z" style="display:inline;fill:#0099da;fill-opacity:0.633745;stroke:none;stroke-width:0.356232px;stroke-linecap:butt;stroke-linejoin:miter;stroke-opacity:1"/> <g id="g6629"> <path id="path6294" d="m 451.70481,128.83654 -0.002,-0.83546 3.94349,-1.43966 3.92632,1.44303 0.0144,0.83209 -3.94119,2.27516 z" style="fill:#bfbfbf;stroke:none;stroke-width:0.135279px;stroke-linecap:butt;stroke-linejoin:miter;stroke-opacity:1"/> <path id="path6296" d="m 478.4729,146.14648 -19.49826,-11.16193 v -1.52502 l 8.12667,-3.1669 19.49829,9.63691 v 1.52502 z" style="fill:#bfbfbf;fill-opacity:1;stroke:none;stroke-width:0.248282px;stroke-linecap:butt;stroke-linejoin:miter;stroke-opacity:1"/> <path style="fill:#4b4b4b;fill-opacity:1;stroke:none;stroke-width:0.248282px;stroke-linecap:butt;stroke-linejoin:miter;stroke-opacity:1" d="m 478.4729,144.62146 -19.49826,-11.16193 8.12667,-4.69192 19.49829,11.16193 z" id="path6298"/> <g id="g6317" transform="matrix(2.8819116,0,0,2.8819116,-1850.3197,-235.17889)"> <path style="fill:#bfbfbf;fill-opacity:1;stroke:none;stroke-width:0.0747572px;stroke-linecap:butt;stroke-linejoin:miter;stroke-opacity:1" d="m 806.73845,130.80412 -4.51448,-2.58909 v -1.05834 l 2.44692,-0.35439 4.51449,1.53075 v 1.05834 z" id="path6300"/> <path id="path6302" d="m 806.73845,129.74578 -4.51448,-2.58909 2.44692,-1.41273 4.51449,2.58909 z" style="fill:#4b4b4b;fill-opacity:1;stroke:none;stroke-width:0.0747572px;stroke-linecap:butt;stroke-linejoin:miter;stroke-opacity:1"/> <g transform="matrix(0.1346465,0,0,0.1346465,704.56567,113.38719)" id="g6309"> <path style="fill:#404040;stroke:none;stroke-width:0.0661459px;stroke-linecap:butt;stroke-linejoin:miter;stroke-opacity:1" d="m 738.23677,112.37249 v 2.5 l -4.33012,-2.5 v -2.5 z" id="path6305"/> <path style="fill:#404040;stroke:none;stroke-width:0.0661459px;stroke-linecap:butt;stroke-linejoin:miter;stroke-opacity:1" d="m 732.79145,111.75 v -2.5 l -4.33013,-2.5 v 2.5 z" id="path6307"/> </g> <g id="g6315" transform="matrix(0.1346465,0,0,0.1346465,706.75675,114.64396)"> <path id="path6311" d="m 738.23677,112.37249 v 2.5 l -4.33012,-2.5 v -2.5 z" style="fill:#404040;stroke:none;stroke-width:0.0661459px;stroke-linecap:butt;stroke-linejoin:miter;stroke-opacity:1"/> <path id="path6313" d="m 732.79145,111.75 v -2.5 l -4.33013,-2.5 v 2.5 z" style="fill:#404040;stroke:none;stroke-width:0.0661459px;stroke-linecap:butt;stroke-linejoin:miter;stroke-opacity:1"/> </g> </g> <path style="fill:#4b4b4b;fill-opacity:1;stroke:none;stroke-width:0.135279px;stroke-linecap:butt;stroke-linejoin:miter;stroke-opacity:1" d="m 451.70481,128.00352 3.94119,-2.27512 3.94119,2.27512 -3.94119,2.27519 z" id="path6319"/> <g id="g6335" transform="matrix(0.18579811,0,0,0.18577474,320.13114,100.67378)" style="stroke-width:1.12357"> <path id="path6321" d="m 699.36895,124.86794 38.29912,22.11202 v 0" style="fill:#404040;fill-opacity:1;stroke:#404040;stroke-width:4.96888;stroke-linecap:round;stroke-linejoin:miter;stroke-miterlimit:4;stroke-dasharray:none;stroke-opacity:1"/> <g transform="translate(-12.969387,11.427605)" id="g6333" style="stroke-width:1.12357"> <path style="fill:#404040;fill-opacity:1;stroke:none;stroke-width:1.01121;stroke-linecap:round;stroke-linejoin:bevel;stroke-miterlimit:4;stroke-dasharray:none;stroke-dashoffset:0;stroke-opacity:1" d="m 754.4421,135.5 c 0,4.14214 -5.81599,7.5 -12.99038,7.5 -7.17439,0 -12.99038,-3.35786 -12.99038,-7.5 0,-0.22321 0.013,-0.49431 0.009,-0.71503 -0.007,-0.41301 -0.0588,-2.22201 -0.05,-3.04171 0.0385,-3.59173 6.84051,-3.74326 13.03131,-3.74326 6.1461,0 12.97815,0.29801 12.98407,3.87316 l 0.003,1.84336 c 3.5e-4,0.20849 0.003,1.57269 0.003,1.78348 z" id="path6323"/> <path style="fill:#808080;fill-opacity:1;stroke:none;stroke-width:1.01121;stroke-linecap:round;stroke-linejoin:bevel;stroke-miterlimit:4;stroke-dasharray:none;stroke-dashoffset:0;stroke-opacity:1" d="m 754.4421,131.79588 c 0,4.14214 -5.81599,7.5 -12.99038,7.5 -7.17439,0 -12.99038,-3.35786 -12.99038,-7.5 0,-4.14214 5.81599,-7.5 12.99038,-7.5 7.17439,0 12.99038,3.35786 12.99038,7.5 z" id="path6325"/> <path style="fill:#404040;fill-opacity:1;stroke:none;stroke-width:0.712659;stroke-linecap:round;stroke-linejoin:bevel;stroke-miterlimit:4;stroke-dasharray:none;stroke-dashoffset:0;stroke-opacity:1" d="m 750.60678,129.66159 c 0,2.9192 -4.09886,5.28568 -9.15506,5.28568 -5.0562,0 -9.15506,-2.36648 -9.15506,-5.28568 0,-0.13072 0.008,-0.26034 0.0244,-0.38869 0.13621,-1.08201 1.14058,-5.13724 2.04895,-5.96434 1.53728,-1.39973 4.1608,1.06735 7.08173,1.06735 2.9459,0 5.16927,-2.6812 6.84388,-1.43328 1.10684,0.82482 2.19784,5.32839 2.29847,6.43808 0.008,0.093 0.0127,0.18666 0.0127,0.28088 z" id="path6327"/> <path style="fill:#808080;fill-opacity:1;stroke:none;stroke-width:0.574425;stroke-linecap:round;stroke-linejoin:bevel;stroke-miterlimit:4;stroke-dasharray:none;stroke-dashoffset:0;stroke-opacity:1" d="m 748.83098,124.40522 c 0,2.35297 -3.30381,4.26042 -7.37926,4.26042 -4.07545,0 -7.37926,-1.90745 -7.37926,-4.26042 0,-2.35297 3.30381,-4.26042 7.37926,-4.26042 4.07545,0 7.37926,1.90745 7.37926,4.26042 z" id="path6329"/> <path style="fill:#404040;fill-opacity:1;stroke:none;stroke-width:0.306615;stroke-linecap:round;stroke-linejoin:bevel;stroke-miterlimit:4;stroke-dasharray:none;stroke-dashoffset:0;stroke-opacity:1" d="m 745.3906,124.40522 c 0,1.25596 -1.76349,2.27411 -3.93888,2.27411 -2.17539,0 -3.93888,-1.01815 -3.93888,-2.27411 0,-1.25596 1.7635,-2.2741 3.93888,-2.2741 2.17538,0 3.93888,1.01814 3.93888,2.2741 z" id="path6331"/> </g> </g> <g id="g6395" transform="matrix(2.5015345,0,0,2.5015345,-1537.6791,-184.2809)" style="stroke-width:1.15206"> <path id="path6337" d="m 808.05918,133.24708 0.004,-0.53048 2.39485,-0.85424 2.40269,0.87983 -0.004,0.50489 -2.3984,1.38471 z" style="fill:#bfbfbf;stroke:none;stroke-width:0.0844163px;stroke-linecap:butt;stroke-linejoin:miter;stroke-opacity:1"/> <path style="fill:#4b4b4b;fill-opacity:1;stroke:none;stroke-width:0.0844163px;stroke-linecap:butt;stroke-linejoin:miter;stroke-opacity:1" d="m 808.05918,132.71791 2.39841,-1.38472 2.3984,1.38472 -2.3984,1.38471 z" id="path6339"/> <path style="fill:#404040;fill-opacity:1;stroke:none;stroke-width:0.132053;stroke-linecap:round;stroke-linejoin:bevel;stroke-miterlimit:4;stroke-dasharray:none;stroke-dashoffset:0;stroke-opacity:1" d="m 812.11167,132.57821 c 0,0.52754 -0.74072,0.95519 -1.65445,0.95519 -0.91372,0 -1.65444,-0.42765 -1.65444,-0.95519 0,-0.0284 0.002,-0.063 10e-4,-0.0911 -8.9e-4,-0.0526 -0.007,-0.28299 -0.006,-0.38739 0.005,-0.45744 0.87121,-0.47674 1.65966,-0.47674 0.78277,0 1.65289,0.038 1.65364,0.49329 l 3.9e-4,0.23477 c 4e-5,0.0266 3.8e-4,0.20029 3.8e-4,0.22714 z" id="path6341"/> <path style="fill:#808080;fill-opacity:1;stroke:none;stroke-width:0.132053;stroke-linecap:round;stroke-linejoin:bevel;stroke-miterlimit:4;stroke-dasharray:none;stroke-dashoffset:0;stroke-opacity:1" d="m 812.11167,132.10645 c 0,0.52754 -0.74072,0.9552 -1.65445,0.9552 -0.91372,0 -1.65444,-0.42766 -1.65444,-0.9552 0,-0.52754 0.74072,-0.95519 1.65444,-0.95519 0.91373,0 1.65445,0.42765 1.65445,0.95519 z" id="path6343"/> <path style="fill:#404040;fill-opacity:1;stroke:none;stroke-width:0.0930651;stroke-linecap:round;stroke-linejoin:bevel;stroke-miterlimit:4;stroke-dasharray:none;stroke-dashoffset:0;stroke-opacity:1" d="m 811.6232,131.83463 c 0,0.37179 -0.52202,0.67318 -1.16598,0.67318 -0.64395,0 -1.16598,-0.30139 -1.16598,-0.67318 0,-0.0166 10e-4,-0.0332 0.003,-0.0495 0.0173,-0.13781 0.14526,-0.65428 0.26095,-0.75962 0.19579,-0.17826 0.52992,0.13594 0.90192,0.13594 0.37519,0 0.65836,-0.34147 0.87164,-0.18254 0.14096,0.10505 0.27991,0.67862 0.29273,0.81995 10e-4,0.0118 0.002,0.0238 0.002,0.0358 z" id="path6345"/> <g transform="matrix(0.12735929,0,0,0.12735929,721.45231,110.93396)" id="g6353" style="stroke-width:1.15206"> <path id="path6347" d="m 706.22825,158.85158 c 0,2.35297 -3.30381,4.26042 -7.37926,4.26042 -4.07545,0 -7.37926,-1.90745 -7.37926,-4.26042 0,-2.35297 3.30381,-4.26042 7.37926,-4.26042 4.07545,0 7.37926,1.90745 7.37926,4.26042 z" style="fill:#808080;fill-opacity:1;stroke:none;stroke-width:0.58899;stroke-linecap:round;stroke-linejoin:bevel;stroke-miterlimit:4;stroke-dasharray:none;stroke-dashoffset:0;stroke-opacity:1"/> <path id="path6349" d="m 702.78787,158.85158 c 0,1.25596 -1.76349,2.27411 -3.93888,2.27411 -2.17539,0 -3.93888,-1.01815 -3.93888,-2.27411 0,-1.25596 1.7635,-2.2741 3.93888,-2.2741 2.17538,0 3.93888,1.01814 3.93888,2.2741 z" style="fill:#404040;fill-opacity:1;stroke:none;stroke-width:0.314389;stroke-linecap:round;stroke-linejoin:bevel;stroke-miterlimit:4;stroke-dasharray:none;stroke-dashoffset:0;stroke-opacity:1"/> </g> <path id="path6355" d="m 812.11167,132.57821 c 0,0.52754 -0.74072,0.95519 -1.65445,0.95519 -0.91372,0 -1.65444,-0.42765 -1.65444,-0.95519 0,-0.0284 0.002,-0.063 10e-4,-0.0911 -8.9e-4,-0.0526 -0.007,-0.28299 -0.006,-0.38739 0.005,-0.45744 0.87121,-0.47674 1.65966,-0.47674 0.78277,0 1.65289,0.038 1.65364,0.49329 l 3.9e-4,0.23477 c 4e-5,0.0266 3.8e-4,0.20029 3.8e-4,0.22714 z" style="fill:#404040;fill-opacity:1;stroke:none;stroke-width:0.132053;stroke-linecap:round;stroke-linejoin:bevel;stroke-miterlimit:4;stroke-dasharray:none;stroke-dashoffset:0;stroke-opacity:1"/> <path id="path6357" d="m 812.11167,132.10645 c 0,0.52754 -0.74072,0.9552 -1.65445,0.9552 -0.91372,0 -1.65444,-0.42766 -1.65444,-0.9552 0,-0.52754 0.74072,-0.95519 1.65444,-0.95519 0.91373,0 1.65445,0.42765 1.65445,0.95519 z" style="fill:#808080;fill-opacity:1;stroke:none;stroke-width:0.132053;stroke-linecap:round;stroke-linejoin:bevel;stroke-miterlimit:4;stroke-dasharray:none;stroke-dashoffset:0;stroke-opacity:1"/> <path id="path6359" d="m 811.11917,131.8588 5.27619,1.97104 v 0" style="fill:#404040;fill-opacity:1;stroke:#404040;stroke-width:0.533403;stroke-linecap:round;stroke-linejoin:miter;stroke-miterlimit:4;stroke-dasharray:none;stroke-opacity:1"/> <g style="stroke-width:1.46273" transform="matrix(0.09901909,-0.01656768,0.01659799,0.09883823,740.44067,128.01481)" id="g6385"> <path style="fill:#404040;fill-opacity:1;stroke:none;stroke-width:0.387015px;stroke-linecap:butt;stroke-linejoin:miter;stroke-opacity:1" d="m 729.89989,182.34967 5.09323,2.89388 3.05723,-5.53294 -4.90105,-2.80556 z" id="path6361"/> <g style="stroke-width:1.46273" id="g6367" transform="matrix(0.36979646,0,0,0.36979646,463.18908,112.51914)"> <path transform="rotate(-60)" style="fill:#404040;fill-opacity:1;stroke:#404040;stroke-width:2.59539;stroke-linecap:round;stroke-linejoin:bevel;stroke-miterlimit:4;stroke-dasharray:none;stroke-dashoffset:0;stroke-opacity:1" d="m 213.43114,734.86603 a 7.6831264,4.4358549 0 0 1 -7.68312,4.43585 7.6831264,4.4358549 0 0 1 -7.68313,-4.43585 7.6831264,4.4358549 0 0 1 7.68313,-4.43586 7.6831264,4.4358549 0 0 1 7.68312,4.43586 z" id="ellipse6363"/> <path transform="rotate(-60)" style="fill:#000000;fill-opacity:1;stroke:#404040;stroke-width:2.4269;stroke-linecap:round;stroke-linejoin:bevel;stroke-miterlimit:4;stroke-dasharray:none;stroke-dashoffset:0;stroke-opacity:1" d="m 212.93234,734.86603 a 7.1843271,4.1478734 0 0 1 -7.18432,4.14787 7.1843271,4.1478734 0 0 1 -7.18433,-4.14787 7.1843271,4.1478734 0 0 1 7.18433,-4.14788 7.1843271,4.1478734 0 0 1 7.18432,4.14788 z" id="ellipse6365"/> </g> <g style="stroke-width:1.46273" transform="matrix(0.36979646,0,0,0.36979646,458.25462,109.68942)" id="g6371"> <path transform="rotate(-60)" style="fill:#404040;fill-opacity:1;stroke:#404040;stroke-width:2.59539;stroke-linecap:round;stroke-linejoin:bevel;stroke-miterlimit:4;stroke-dasharray:none;stroke-dashoffset:0;stroke-opacity:1" d="m 213.43114,734.86603 a 7.6831264,4.4358549 0 0 1 -7.68312,4.43585 7.6831264,4.4358549 0 0 1 -7.68313,-4.43585 7.6831264,4.4358549 0 0 1 7.68313,-4.43586 7.6831264,4.4358549 0 0 1 7.68312,4.43586 z" id="path6369"/> </g> <path id="path6373" d="m 729.89989,182.34967 5.09323,2.89388 3.05723,-5.53294 -4.90105,-2.80556 z" style="fill:#404040;fill-opacity:1;stroke:none;stroke-width:0.387015px;stroke-linecap:butt;stroke-linejoin:miter;stroke-opacity:1"/> <g style="stroke-width:1.46273" transform="matrix(0.36979646,0,0,0.36979646,463.18908,112.51914)" id="g6379"> <path transform="rotate(-60)" style="fill:#404040;fill-opacity:1;stroke:#404040;stroke-width:2.59539;stroke-linecap:round;stroke-linejoin:bevel;stroke-miterlimit:4;stroke-dasharray:none;stroke-dashoffset:0;stroke-opacity:1" d="m 213.43114,734.86603 a 7.6831264,4.4358549 0 0 1 -7.68312,4.43585 7.6831264,4.4358549 0 0 1 -7.68313,-4.43585 7.6831264,4.4358549 0 0 1 7.68313,-4.43586 7.6831264,4.4358549 0 0 1 7.68312,4.43586 z" id="ellipse6375"/> <path transform="rotate(-60)" style="fill:#000000;fill-opacity:1;stroke:#404040;stroke-width:2.4269;stroke-linecap:round;stroke-linejoin:bevel;stroke-miterlimit:4;stroke-dasharray:none;stroke-dashoffset:0;stroke-opacity:1" d="m 212.93234,734.86603 a 7.1843271,4.1478734 0 0 1 -7.18432,4.14787 7.1843271,4.1478734 0 0 1 -7.18433,-4.14787 7.1843271,4.1478734 0 0 1 7.18433,-4.14788 7.1843271,4.1478734 0 0 1 7.18432,4.14788 z" id="ellipse6377"/> </g> <g style="stroke-width:1.46273" id="g6383" transform="matrix(0.36979646,0,0,0.36979646,458.25462,109.68942)"> <path id="path6381" d="m 213.43114,734.86603 a 7.6831264,4.4358549 0 0 1 -7.68312,4.43585 7.6831264,4.4358549 0 0 1 -7.68313,-4.43585 7.6831264,4.4358549 0 0 1 7.68313,-4.43586 7.6831264,4.4358549 0 0 1 7.68312,4.43586 z" style="fill:#404040;fill-opacity:1;stroke:#404040;stroke-width:2.59539;stroke-linecap:round;stroke-linejoin:bevel;stroke-miterlimit:4;stroke-dasharray:none;stroke-dashoffset:0;stroke-opacity:1" transform="rotate(-60)"/> </g> </g> <path id="path6387" d="m 811.6232,131.83463 c 0,0.37179 -0.52202,0.67318 -1.16598,0.67318 -0.64395,0 -1.16598,-0.30139 -1.16598,-0.67318 0,-0.0166 10e-4,-0.0332 0.003,-0.0495 0.0173,-0.13781 0.14526,-0.65428 0.26095,-0.75962 0.19579,-0.17826 0.52992,0.13594 0.90192,0.13594 0.37519,0 0.65836,-0.34147 0.87164,-0.18254 0.14096,0.10505 0.27991,0.67862 0.29273,0.81995 10e-4,0.0118 0.002,0.0238 0.002,0.0358 z" style="fill:#404040;fill-opacity:1;stroke:none;stroke-width:0.0930651;stroke-linecap:round;stroke-linejoin:bevel;stroke-miterlimit:4;stroke-dasharray:none;stroke-dashoffset:0;stroke-opacity:1"/> <g transform="matrix(0.12735929,0,0,0.12735929,721.45231,110.93396)" id="g6393" style="stroke-width:1.15206"> <path style="fill:#808080;fill-opacity:1;stroke:none;stroke-width:0.58899;stroke-linecap:round;stroke-linejoin:bevel;stroke-miterlimit:4;stroke-dasharray:none;stroke-dashoffset:0;stroke-opacity:1" d="m 706.22825,158.85158 c 0,2.35297 -3.30381,4.26042 -7.37926,4.26042 -4.07545,0 -7.37926,-1.90745 -7.37926,-4.26042 0,-2.35297 3.30381,-4.26042 7.37926,-4.26042 4.07545,0 7.37926,1.90745 7.37926,4.26042 z" id="path6389"/> <path style="fill:#404040;fill-opacity:1;stroke:none;stroke-width:0.314389;stroke-linecap:round;stroke-linejoin:bevel;stroke-miterlimit:4;stroke-dasharray:none;stroke-dashoffset:0;stroke-opacity:1" d="m 702.78787,158.85158 c 0,1.25596 -1.76349,2.27411 -3.93888,2.27411 -2.17539,0 -3.93888,-1.01815 -3.93888,-2.27411 0,-1.25596 1.7635,-2.2741 3.93888,-2.2741 2.17538,0 3.93888,1.01814 3.93888,2.2741 z" id="path6391"/> </g> </g> <g id="g6435" transform="matrix(2.8819116,0,0,2.8819116,-1845.8186,-233.58549)"> <path style="fill:#bfbfbf;fill-opacity:1;stroke:none;stroke-width:0.319878;stroke-linecap:round;stroke-linejoin:bevel;stroke-miterlimit:4;stroke-dasharray:none;stroke-dashoffset:0;stroke-opacity:1" d="m 803.38873,125.03453 h 1.07442 v 2.06772 h -1.07442 z" id="rect6397"/> <g id="g6423" style="display:inline;stroke-width:1.45228" transform="matrix(0.0073721,0,0,0.00736594,800.97907,120.76636)"> <path style="fill:#404040;fill-opacity:1;stroke:none;stroke-width:0.384248px;stroke-linecap:butt;stroke-linejoin:miter;stroke-opacity:1" d="m 729.89989,182.34967 5.09323,2.89388 3.05723,-5.53294 -4.90105,-2.80556 z" id="path6399"/> <g style="stroke-width:1.45228" id="g6405" transform="matrix(0.36979646,0,0,0.36979646,463.18908,112.51914)"> <path transform="rotate(-60)" style="fill:#404040;fill-opacity:1;stroke:#404040;stroke-width:2.57683;stroke-linecap:round;stroke-linejoin:bevel;stroke-miterlimit:4;stroke-dasharray:none;stroke-dashoffset:0;stroke-opacity:1" d="m 213.43114,734.86603 a 7.6831264,4.4358549 0 0 1 -7.68312,4.43585 7.6831264,4.4358549 0 0 1 -7.68313,-4.43585 7.6831264,4.4358549 0 0 1 7.68313,-4.43586 7.6831264,4.4358549 0 0 1 7.68312,4.43586 z" id="ellipse6401"/> <path transform="rotate(-60)" style="fill:#000000;fill-opacity:1;stroke:#404040;stroke-width:2.40954;stroke-linecap:round;stroke-linejoin:bevel;stroke-miterlimit:4;stroke-dasharray:none;stroke-dashoffset:0;stroke-opacity:1" d="m 212.93234,734.86603 a 7.1843271,4.1478734 0 0 1 -7.18432,4.14787 7.1843271,4.1478734 0 0 1 -7.18433,-4.14787 7.1843271,4.1478734 0 0 1 7.18433,-4.14788 7.1843271,4.1478734 0 0 1 7.18432,4.14788 z" id="ellipse6403"/> </g> <g style="stroke-width:1.45228" transform="matrix(0.36979646,0,0,0.36979646,458.25462,109.68942)" id="g6409"> <path transform="rotate(-60)" style="fill:#404040;fill-opacity:1;stroke:#404040;stroke-width:2.57683;stroke-linecap:round;stroke-linejoin:bevel;stroke-miterlimit:4;stroke-dasharray:none;stroke-dashoffset:0;stroke-opacity:1" d="m 213.43114,734.86603 a 7.6831264,4.4358549 0 0 1 -7.68312,4.43585 7.6831264,4.4358549 0 0 1 -7.68313,-4.43585 7.6831264,4.4358549 0 0 1 7.68313,-4.43586 7.6831264,4.4358549 0 0 1 7.68312,4.43586 z" id="path6407"/> </g> <path id="path6411" d="m 729.89989,182.34967 5.09323,2.89388 3.05723,-5.53294 -4.90105,-2.80556 z" style="fill:#404040;fill-opacity:1;stroke:none;stroke-width:0.384248px;stroke-linecap:butt;stroke-linejoin:miter;stroke-opacity:1"/> <g style="stroke-width:1.45228" transform="matrix(0.36979646,0,0,0.36979646,463.18908,112.51914)" id="g6417"> <path transform="rotate(-60)" style="fill:#404040;fill-opacity:1;stroke:#404040;stroke-width:2.57683;stroke-linecap:round;stroke-linejoin:bevel;stroke-miterlimit:4;stroke-dasharray:none;stroke-dashoffset:0;stroke-opacity:1" d="m 213.43114,734.86603 a 7.6831264,4.4358549 0 0 1 -7.68312,4.43585 7.6831264,4.4358549 0 0 1 -7.68313,-4.43585 7.6831264,4.4358549 0 0 1 7.68313,-4.43586 7.6831264,4.4358549 0 0 1 7.68312,4.43586 z" id="ellipse6413"/> <path transform="rotate(-60)" style="fill:#808080;fill-opacity:1;stroke:none;stroke-width:2.90312;stroke-linecap:round;stroke-linejoin:bevel;stroke-miterlimit:4;stroke-dasharray:none;stroke-dashoffset:0;stroke-opacity:1" d="m 214.35051,735.31 a 8.6559715,4.9975276 0 0 1 -8.65598,4.99753 8.6559715,4.9975276 0 0 1 -8.65597,-4.99753 8.6559715,4.9975276 0 0 1 8.65597,-4.99753 8.6559715,4.9975276 0 0 1 8.65598,4.99753 z" id="ellipse6415"/> </g> <g style="stroke-width:1.45228" id="g6421" transform="matrix(0.36979646,0,0,0.36979646,458.25462,109.68942)"> <path id="path6419" d="m 213.43114,734.86603 a 7.6831264,4.4358549 0 0 1 -7.68312,4.43585 7.6831264,4.4358549 0 0 1 -7.68313,-4.43585 7.6831264,4.4358549 0 0 1 7.68313,-4.43586 7.6831264,4.4358549 0 0 1 7.68312,4.43586 z" style="fill:#404040;fill-opacity:1;stroke:#404040;stroke-width:2.57683;stroke-linecap:round;stroke-linejoin:bevel;stroke-miterlimit:4;stroke-dasharray:none;stroke-dashoffset:0;stroke-opacity:1" transform="rotate(-60)"/> </g> </g> <path id="path6425" d="m 802.64639,122.65607 2.55909,-1.47749" style="fill:#808080;stroke:#bbbbbb;stroke-width:0.319878;stroke-linecap:round;stroke-linejoin:miter;stroke-miterlimit:4;stroke-dasharray:none;stroke-opacity:1"/> <path id="path6427" d="m 802.64639,124.13357 2.55909,-1.4775 v 0 0" style="fill:#808080;stroke:#bbbbbb;stroke-width:0.319878;stroke-linecap:round;stroke-linejoin:miter;stroke-miterlimit:4;stroke-dasharray:none;stroke-opacity:1"/> <path id="path6429" d="m 804.46314,127.10226 a 0.53721053,0.31015865 0 0 1 -0.53721,0.31016 0.53721053,0.31015865 0 0 1 -0.53721,-0.31016 0.53721053,0.31015865 0 0 1 0.53721,-0.31016 0.53721053,0.31015865 0 0 1 0.53721,0.31016 z" style="fill:#bfbfbf;fill-opacity:1;stroke:none;stroke-width:0.319878;stroke-linecap:round;stroke-linejoin:bevel;stroke-miterlimit:4;stroke-dasharray:none;stroke-dashoffset:0;stroke-opacity:1"/> <path id="path6431" d="m 804.46314,125.03454 a 0.53721053,0.31015865 0 0 1 -0.53721,0.31015 0.53721053,0.31015865 0 0 1 -0.53721,-0.31015 0.53721053,0.31015865 0 0 1 0.53721,-0.31017 0.53721053,0.31015865 0 0 1 0.53721,0.31017 z" style="fill:#808080;fill-opacity:1;stroke:none;stroke-width:0.319878;stroke-linecap:round;stroke-linejoin:bevel;stroke-miterlimit:4;stroke-dasharray:none;stroke-dashoffset:0;stroke-opacity:1"/> <path id="path6433" d="m 803.92593,124.89037 v -3.93941" style="fill:#808080;stroke:#bbbbbb;stroke-width:0.301561;stroke-linecap:round;stroke-linejoin:miter;stroke-miterlimit:4;stroke-dasharray:none;stroke-opacity:1"/> </g> <g id="g6447" transform="matrix(2.8819116,0,0,2.8819116,-1847.2007,-234.30034)"> <path id="path6437" d="m 806.53247,127.44539 2.55909,-1.47749" style="fill:#808080;stroke:#bbbbbb;stroke-width:0.319878;stroke-linecap:round;stroke-linejoin:miter;stroke-miterlimit:4;stroke-dasharray:none;stroke-opacity:1"/> <path style="fill:#bfbfbf;fill-opacity:1;stroke:none;stroke-width:0.319878;stroke-linecap:round;stroke-linejoin:bevel;stroke-miterlimit:4;stroke-dasharray:none;stroke-dashoffset:0;stroke-opacity:1" d="m 807.27478,128.27007 h 1.07442 v 2.06772 h -1.07442 z" id="rect6439"/> <path style="fill:#bfbfbf;fill-opacity:1;stroke:none;stroke-width:0.319878;stroke-linecap:round;stroke-linejoin:bevel;stroke-miterlimit:4;stroke-dasharray:none;stroke-dashoffset:0;stroke-opacity:1" d="m 808.34922,130.33779 a 0.53721053,0.31015865 0 0 1 -0.53721,0.31015 0.53721053,0.31015865 0 0 1 -0.53721,-0.31015 0.53721053,0.31015865 0 0 1 0.53721,-0.31016 0.53721053,0.31015865 0 0 1 0.53721,0.31016 z" id="path6441"/> <path style="fill:#808080;fill-opacity:1;stroke:none;stroke-width:0.319878;stroke-linecap:round;stroke-linejoin:bevel;stroke-miterlimit:4;stroke-dasharray:none;stroke-dashoffset:0;stroke-opacity:1" d="m 808.34922,128.27006 a 0.53721053,0.31015865 0 0 1 -0.53721,0.31016 0.53721053,0.31015865 0 0 1 -0.53721,-0.31016 0.53721053,0.31015865 0 0 1 0.53721,-0.31016 0.53721053,0.31015865 0 0 1 0.53721,0.31016 z" id="path6443"/> <path id="path6445" d="m 807.81201,125.22916 v 2.95498" style="fill:#808080;stroke:#bbbbbb;stroke-width:0.319878;stroke-linecap:round;stroke-linejoin:miter;stroke-miterlimit:4;stroke-dasharray:none;stroke-opacity:1"/> </g> <path id="path6449" d="m 502.57404,159.11298 5.20655,-3.00598" style="display:inline;fill:#808080;stroke:#bbbbbb;stroke-width:0.650798;stroke-linecap:round;stroke-linejoin:miter;stroke-miterlimit:4;stroke-dasharray:none;stroke-opacity:1"/> <path style="display:inline;fill:#808080;stroke:#bbbbbb;stroke-width:0.650798;stroke-linecap:round;stroke-linejoin:miter;stroke-miterlimit:4;stroke-dasharray:none;stroke-opacity:1" d="m 499.33339,157.20671 5.20655,-3.00597" id="path6451"/> </g> </g> <g id="g11071" transform="matrix(1.4508229,0,0,-1.4550658,-660.75091,223.42067)" style="display:inline;stroke-width:0.58502"> <path id="path11065" d="m 538.4069,47.983878 c 5.85832,-2.070854 6.94545,-1.221848 5.14316,0.928755" style="fill:none;stroke:#bbf0fe;stroke-width:0.29251;stroke-linecap:round;stroke-linejoin:miter;stroke-miterlimit:4;stroke-dasharray:none;stroke-opacity:1"/> <path style="fill:none;stroke:#bbf0fe;stroke-width:0.29251;stroke-linecap:round;stroke-linejoin:miter;stroke-miterlimit:4;stroke-dasharray:none;stroke-opacity:1" d="m 511.06272,58.449216 c 7.80354,-3.529956 21.9037,-10.295604 30.32445,-12.259492 5.6488,-1.317414 5.83236,0.309519 2.79189,3.555199" id="path11067"/> </g> </g> </g> </svg>